<mxfile host="drawio-plugin" modified="2023-06-26T15:41:56.821Z" agent="5.0 (Windows NT 6.2; Win64; x64) AppleWebKit/537.36 (KHTML, like Gecko) Chrome/104.0.5112.102 Safari/537.36" etag="b47uDM6xzXWKJvmUGyVt" version="20.5.3" type="embed"><diagram id="Cefqmx0Oj_4-pc0AHTQd" name="Page-1"><mxGraphModel dx="375" dy="219" grid="1" gridSize="10" guides="1" tooltips="1" connect="1" arrows="1" fold="1" page="1" pageScale="1" pageWidth="850" pageHeight="1100" background="#ffffff" math="0" shadow="0"><root><mxCell id="0"/><mxCell id="1" parent="0"/><mxCell id="2" value="LobbyPresenter" style="shape=umlLifeline;perimeter=lifelinePerimeter;whiteSpace=wrap;html=1;container=1;collapsible=0;recursiveResize=0;outlineConnect=0;rounded=0;labelBackgroundColor=none;fontColor=#FFFFFF;labelBorderColor=none;fillColor=#6666FF;strokeColor=#000000;" parent="1" vertex="1"><mxGeometry x="200" y="80" width="120" height="240" as="geometry"/></mxCell><mxCell id="3" value="" style="html=1;points=[];perimeter=orthogonalPerimeter;rounded=0;fillColor=#0050ef;fontColor=#000000;strokeColor=#001DBC;labelBackgroundColor=none;labelBorderColor=none;" parent="2" vertex="1"><mxGeometry x="55" y="110" width="10" height="60" as="geometry"/></mxCell><mxCell id="4" value="LobbyView" style="shape=umlLifeline;perimeter=lifelinePerimeter;whiteSpace=wrap;html=1;container=1;collapsible=0;recursiveResize=0;outlineConnect=0;rounded=0;labelBackgroundColor=none;fontColor=#FFFFFF;labelBorderColor=none;fillColor=#6666FF;strokeColor=#000000;" parent="1" vertex="1"><mxGeometry x="70" y="80" width="100" height="240" as="geometry"/></mxCell><mxCell id="5" value="" style="html=1;points=[];perimeter=orthogonalPerimeter;rounded=0;fillColor=#0050ef;fontColor=#000000;strokeColor=#001DBC;labelBackgroundColor=none;labelBorderColor=none;" parent="4" vertex="1"><mxGeometry x="45" y="90" width="10" height="30" as="geometry"/></mxCell><mxCell id="6" value="ClientConnection" style="shape=umlLifeline;perimeter=lifelinePerimeter;whiteSpace=wrap;html=1;container=1;collapsible=0;recursiveResize=0;outlineConnect=0;rounded=0;labelBackgroundColor=none;fontColor=#FFFFFF;labelBorderColor=none;fillColor=#6666FF;strokeColor=#000000;" parent="1" vertex="1"><mxGeometry x="820" y="80" width="100" height="970" as="geometry"/></mxCell><mxCell id="50" value="" style="html=1;points=[];perimeter=orthogonalPerimeter;fillColor=#0050ef;fontColor=#000000;strokeColor=#001DBC;rounded=0;labelBackgroundColor=none;labelBorderColor=none;" parent="6" vertex="1"><mxGeometry x="45" y="240" width="10" height="30" as="geometry"/></mxCell><mxCell id="86" value="" style="html=1;points=[];perimeter=orthogonalPerimeter;fillColor=#0050ef;fontColor=#000000;strokeColor=#001DBC;rounded=0;labelBackgroundColor=none;labelBorderColor=none;" parent="6" vertex="1"><mxGeometry x="45" y="400" width="10" height="30" as="geometry"/></mxCell><mxCell id="8" value="ClientEventBus" style="shape=umlLifeline;perimeter=lifelinePerimeter;whiteSpace=wrap;html=1;container=1;collapsible=0;recursiveResize=0;outlineConnect=0;rounded=0;labelBackgroundColor=none;fontColor=#FFFFFF;labelBorderColor=none;fillColor=#6666FF;strokeColor=#333333;" parent="1" vertex="1"><mxGeometry x="620" y="80" width="100" height="1010" as="geometry"/></mxCell><mxCell id="9" value="" style="html=1;points=[];perimeter=orthogonalPerimeter;fillColor=#0050ef;fontColor=#000000;strokeColor=#001DBC;rounded=0;labelBackgroundColor=none;labelBorderColor=none;" parent="8" vertex="1"><mxGeometry x="45" y="210" width="10" height="30" as="geometry"/></mxCell><mxCell id="89" value="" style="html=1;points=[];perimeter=orthogonalPerimeter;fillColor=#0050ef;fontColor=#000000;strokeColor=#001DBC;rounded=0;labelBackgroundColor=none;labelBorderColor=none;" parent="8" vertex="1"><mxGeometry x="45" y="430" width="10" height="40" as="geometry"/></mxCell><mxCell id="125" value="" style="html=1;points=[];perimeter=orthogonalPerimeter;fillColor=#0050ef;fontColor=#000000;strokeColor=#001DBC;rounded=0;labelBackgroundColor=none;labelBorderColor=none;" vertex="1" parent="8"><mxGeometry x="45" y="550" width="10" height="40" as="geometry"/></mxCell><mxCell id="158" value="" style="html=1;points=[];perimeter=orthogonalPerimeter;fillColor=#0050ef;fontColor=#000000;strokeColor=#001DBC;rounded=0;labelBackgroundColor=none;labelBorderColor=none;" vertex="1" parent="8"><mxGeometry x="45" y="820" width="10" height="20" as="geometry"/></mxCell><mxCell id="14" value="&lt;span&gt;GameService&lt;/span&gt;" style="shape=umlLifeline;perimeter=lifelinePerimeter;whiteSpace=wrap;html=1;container=1;collapsible=0;recursiveResize=0;outlineConnect=0;rounded=0;labelBackgroundColor=none;fontColor=#FFFFFF;labelBorderColor=none;fillColor=#6666FF;strokeColor=#000000;" parent="1" vertex="1"><mxGeometry x="1155" y="80" width="120" height="600" as="geometry"/></mxCell><mxCell id="66" value="" style="html=1;points=[];perimeter=orthogonalPerimeter;fillColor=#0050ef;fontColor=#000000;strokeColor=#001DBC;rounded=0;labelBackgroundColor=none;labelBorderColor=none;" parent="14" vertex="1"><mxGeometry x="55" y="290" width="10" height="80" as="geometry"/></mxCell><mxCell id="16" value="serverEventBus" style="shape=umlLifeline;perimeter=lifelinePerimeter;whiteSpace=wrap;html=1;container=1;collapsible=0;recursiveResize=0;outlineConnect=0;rounded=0;labelBackgroundColor=none;fontColor=#FFFFFF;labelBorderColor=none;fillColor=#6666FF;strokeColor=#000000;" parent="1" vertex="1"><mxGeometry x="950" y="80" width="100" height="600" as="geometry"/></mxCell><mxCell id="63" value="" style="html=1;points=[];perimeter=orthogonalPerimeter;fillColor=#0050ef;fontColor=#000000;strokeColor=#001DBC;rounded=0;labelBackgroundColor=none;labelBorderColor=none;" parent="16" vertex="1"><mxGeometry x="45" y="260" width="10" height="30" as="geometry"/></mxCell><mxCell id="80" value="" style="html=1;points=[];perimeter=orthogonalPerimeter;fillColor=#0050ef;fontColor=#000000;strokeColor=#001DBC;rounded=0;labelBackgroundColor=none;labelBorderColor=none;" parent="16" vertex="1"><mxGeometry x="45" y="370" width="10" height="30" as="geometry"/></mxCell><mxCell id="38" value="" style="edgeStyle=none;html=1;dashed=1;endArrow=none;endFill=0;rounded=0;labelBackgroundColor=none;fontColor=#FFFFFF;labelBorderColor=#000000;strokeColor=#000000;" parent="1" edge="1"><mxGeometry relative="1" as="geometry"><mxPoint x="24.759999999999998" y="160" as="sourcePoint"/><mxPoint x="25" y="1090" as="targetPoint"/></mxGeometry></mxCell><mxCell id="39" style="edgeStyle=none;html=1;endArrow=classic;endFill=1;entryX=-0.052;entryY=0.015;entryDx=0;entryDy=0;entryPerimeter=0;rounded=0;labelBackgroundColor=none;fontColor=#000000;labelBorderColor=none;" parent="1" target="5" edge="1"><mxGeometry relative="1" as="geometry"><mxPoint x="25" y="172" as="sourcePoint"/></mxGeometry></mxCell><mxCell id="19" value="User" style="shape=umlActor;verticalLabelPosition=bottom;verticalAlign=top;html=1;rounded=0;labelBackgroundColor=none;fontColor=#FFFFFF;labelBorderColor=none;" parent="1" vertex="1"><mxGeometry x="10" y="80" width="30" height="60" as="geometry"/></mxCell><mxCell id="41" style="edgeStyle=none;html=1;endArrow=classic;endFill=1;entryX=-0.148;entryY=0.166;entryDx=0;entryDy=0;entryPerimeter=0;rounded=0;labelBackgroundColor=none;fontColor=#000000;labelBorderColor=none;strokeColor=#000000;" parent="1" source="5" target="3" edge="1"><mxGeometry relative="1" as="geometry"><mxPoint x="120" y="190" as="sourcePoint"/><mxPoint x="280" y="190" as="targetPoint"/></mxGeometry></mxCell><mxCell id="42" value="onStartButtonPressed" style="edgeLabel;html=1;align=center;verticalAlign=middle;resizable=0;points=[];rounded=0;labelBackgroundColor=none;fontColor=#000000;labelBorderColor=none;" parent="41" vertex="1" connectable="0"><mxGeometry x="-0.3866" y="-2" relative="1" as="geometry"><mxPoint x="21" y="-12" as="offset"/></mxGeometry></mxCell><mxCell id="51" style="edgeStyle=none;html=1;endArrow=classic;endFill=1;entryX=-0.052;entryY=-0.017;entryDx=0;entryDy=0;entryPerimeter=0;exitX=1.019;exitY=0.998;exitDx=0;exitDy=0;exitPerimeter=0;rounded=0;labelBackgroundColor=none;fontColor=#000000;labelBorderColor=none;" parent="1" source="9" target="50" edge="1"><mxGeometry relative="1" as="geometry"><mxPoint x="759.47" y="320.0300000000001" as="sourcePoint"/><mxPoint x="499.47" y="320.51" as="targetPoint"/></mxGeometry></mxCell><mxCell id="52" value="onStartGameRequest(&lt;br&gt;startGameRequest)" style="edgeLabel;html=1;align=center;verticalAlign=middle;resizable=0;points=[];rounded=0;labelBackgroundColor=none;fontColor=#000000;labelBorderColor=none;" parent="51" vertex="1" connectable="0"><mxGeometry x="-0.3866" y="-2" relative="1" as="geometry"><mxPoint x="27" y="-2" as="offset"/></mxGeometry></mxCell><mxCell id="67" style="edgeStyle=none;html=1;endArrow=classic;endFill=1;exitX=0.995;exitY=0.998;exitDx=0;exitDy=0;exitPerimeter=0;entryX=-0.1;entryY=-0.017;entryDx=0;entryDy=0;entryPerimeter=0;rounded=0;labelBackgroundColor=none;fontColor=#000000;labelBorderColor=none;" parent="1" source="63" target="66" edge="1"><mxGeometry relative="1" as="geometry"><mxPoint x="1432.5600000000002" y="510" as="sourcePoint"/><mxPoint x="1717.61" y="509.55999999999995" as="targetPoint"/></mxGeometry></mxCell><mxCell id="68" value="onStartGameRequest(&lt;br&gt;startGameRequest)" style="edgeLabel;html=1;align=center;verticalAlign=middle;resizable=0;points=[];rounded=0;labelBackgroundColor=none;fontColor=#000000;labelBorderColor=none;" parent="67" vertex="1" connectable="0"><mxGeometry x="-0.3866" y="-2" relative="1" as="geometry"><mxPoint x="11" y="-2" as="offset"/></mxGeometry></mxCell><mxCell id="69" value="GameManagement" style="shape=umlLifeline;perimeter=lifelinePerimeter;whiteSpace=wrap;html=1;container=1;collapsible=0;recursiveResize=0;outlineConnect=0;rounded=0;labelBackgroundColor=none;fontColor=#FFFFFF;labelBorderColor=none;fillColor=#6666FF;strokeColor=#000000;" parent="1" vertex="1"><mxGeometry x="1330" y="80" width="110" height="600" as="geometry"/></mxCell><mxCell id="70" value="" style="html=1;points=[];perimeter=orthogonalPerimeter;fillColor=#0050ef;fontColor=#000000;strokeColor=#001DBC;rounded=0;labelBackgroundColor=none;labelBorderColor=none;" parent="69" vertex="1"><mxGeometry x="50" y="300" width="10" height="50" as="geometry"/></mxCell><mxCell id="71" style="edgeStyle=none;html=1;endArrow=classic;endFill=1;exitX=1.233;exitY=0.15;exitDx=0;exitDy=0;exitPerimeter=0;rounded=0;labelBackgroundColor=none;fontColor=#000000;labelBorderColor=none;" parent="1" source="66" edge="1"><mxGeometry relative="1" as="geometry"><mxPoint x="1812.56" y="479" as="sourcePoint"/><mxPoint x="1380" y="382" as="targetPoint"/></mxGeometry></mxCell><mxCell id="72" value="createNewGame(...)" style="edgeLabel;html=1;align=center;verticalAlign=middle;resizable=0;points=[];rounded=0;labelBackgroundColor=none;fontColor=#000000;labelBorderColor=none;" parent="71" vertex="1" connectable="0"><mxGeometry x="-0.3866" y="-2" relative="1" as="geometry"><mxPoint x="29" y="-14" as="offset"/></mxGeometry></mxCell><mxCell id="81" style="edgeStyle=none;html=1;endArrow=classic;endFill=1;entryX=1.042;entryY=-0.004;entryDx=0;entryDy=0;entryPerimeter=0;exitX=-0.112;exitY=1.002;exitDx=0;exitDy=0;exitPerimeter=0;rounded=0;labelBackgroundColor=none;fontColor=#000000;labelBorderColor=none;" parent="1" source="66" target="80" edge="1"><mxGeometry relative="1" as="geometry"><mxPoint x="1765.8200000000002" y="580.4200000000001" as="sourcePoint"/><mxPoint x="1607.56" y="580" as="targetPoint"/></mxGeometry></mxCell><mxCell id="82" value="lobbyService.sendToAllInLobby(&lt;br&gt;lobbyID, StartGameMessage)" style="edgeLabel;html=1;align=center;verticalAlign=middle;resizable=0;points=[];rounded=0;labelBackgroundColor=none;fontColor=#000000;labelBorderColor=none;" parent="81" vertex="1" connectable="0"><mxGeometry x="-0.3866" y="-2" relative="1" as="geometry"><mxPoint x="-36" y="2" as="offset"/></mxGeometry></mxCell><mxCell id="87" style="edgeStyle=none;html=1;endArrow=classic;endFill=1;entryX=0.995;entryY=0.014;entryDx=0;entryDy=0;entryPerimeter=0;exitX=-0.042;exitY=0.984;exitDx=0;exitDy=0;exitPerimeter=0;rounded=0;labelBackgroundColor=none;fontColor=#000000;labelBorderColor=none;" parent="1" target="86" edge="1" source="80"><mxGeometry relative="1" as="geometry"><mxPoint x="1062.5700000000002" y="649.52" as="sourcePoint"/><mxPoint x="924.9738095238095" y="640" as="targetPoint"/><Array as="points"/></mxGeometry></mxCell><mxCell id="48" style="edgeStyle=none;html=1;endArrow=classic;endFill=1;entryX=-0.052;entryY=-0.017;entryDx=0;entryDy=0;entryPerimeter=0;rounded=0;labelBackgroundColor=none;fontColor=#000000;labelBorderColor=none;" parent="1" source="106" target="9" edge="1"><mxGeometry relative="1" as="geometry"><mxPoint x="624.1800000000001" y="289.5200000000001" as="sourcePoint"/><mxPoint x="739.1800000000001" y="300" as="targetPoint"/></mxGeometry></mxCell><mxCell id="106" value="GameService" style="shape=umlLifeline;perimeter=lifelinePerimeter;whiteSpace=wrap;html=1;container=1;collapsible=0;recursiveResize=0;outlineConnect=0;rounded=0;labelBackgroundColor=none;fontColor=#FFFFFF;labelBorderColor=none;fillColor=#6666FF;strokeColor=#000000;" parent="1" vertex="1"><mxGeometry x="440" y="80" width="120" height="630" as="geometry"/></mxCell><mxCell id="107" value="" style="html=1;points=[];perimeter=orthogonalPerimeter;rounded=0;fillColor=#0050ef;fontColor=#000000;strokeColor=#001DBC;labelBackgroundColor=none;labelBorderColor=none;" parent="106" vertex="1"><mxGeometry x="55" y="170" width="10" height="40" as="geometry"/></mxCell><mxCell id="119" value="" style="html=1;points=[];perimeter=orthogonalPerimeter;fillColor=#0050ef;fontColor=#000000;strokeColor=#001DBC;rounded=0;labelBackgroundColor=none;labelBorderColor=none;" vertex="1" parent="106"><mxGeometry x="55" y="470" width="10" height="40" as="geometry"/></mxCell><mxCell id="108" style="edgeStyle=none;html=1;endArrow=classic;endFill=1;entryX=0.029;entryY=0.005;entryDx=0;entryDy=0;entryPerimeter=0;rounded=0;exitX=1.167;exitY=1.008;exitDx=0;exitDy=0;exitPerimeter=0;labelBackgroundColor=none;fontColor=#000000;labelBorderColor=none;" parent="1" source="3" target="107" edge="1"><mxGeometry relative="1" as="geometry"><mxPoint x="294.9985714285713" y="290" as="sourcePoint"/><mxPoint x="439.55" y="290" as="targetPoint"/></mxGeometry></mxCell><mxCell id="109" value="post(requestStartGameEvent)" style="edgeLabel;html=1;align=center;verticalAlign=middle;resizable=0;points=[];rounded=0;labelBackgroundColor=none;fontColor=#000000;labelBorderColor=none;" parent="108" vertex="1" connectable="0"><mxGeometry x="-0.3866" y="-2" relative="1" as="geometry"><mxPoint x="26" y="-12" as="offset"/></mxGeometry></mxCell><mxCell id="114" style="edgeStyle=orthogonalEdgeStyle;rounded=0;orthogonalLoop=1;jettySize=auto;html=1;entryX=-0.083;entryY=0.294;entryDx=0;entryDy=0;entryPerimeter=0;exitX=1.075;exitY=0.956;exitDx=0;exitDy=0;exitPerimeter=0;labelBackgroundColor=none;fontColor=#000000;labelBorderColor=none;" parent="1" source="50" target="63" edge="1"><mxGeometry relative="1" as="geometry"/></mxCell><mxCell id="116" style="edgeStyle=none;html=1;endArrow=none;endFill=0;rounded=0;startArrow=classic;startFill=1;dashed=1;entryX=0;entryY=0.787;entryDx=0;entryDy=0;entryPerimeter=0;labelBackgroundColor=none;fontColor=#000000;labelBorderColor=none;" edge="1" parent="1" source="66" target="70"><mxGeometry relative="1" as="geometry"><mxPoint x="1573.09" y="560.86" as="sourcePoint"/><mxPoint x="1640" y="450" as="targetPoint"/><Array as="points"/></mxGeometry></mxCell><mxCell id="92" style="edgeStyle=none;html=1;endArrow=classic;endFill=1;exitX=-0.231;exitY=1.007;exitDx=0;exitDy=0;exitPerimeter=0;rounded=0;entryX=1.038;entryY=0.01;entryDx=0;entryDy=0;entryPerimeter=0;labelBackgroundColor=none;fontColor=#000000;labelBorderColor=none;" parent="1" target="119" edge="1" source="89"><mxGeometry relative="1" as="geometry"><mxPoint x="665.0000000000002" y="710.06" as="sourcePoint"/><mxPoint x="545" y="711" as="targetPoint"/><Array as="points"/></mxGeometry></mxCell><mxCell id="93" value="onStarGameMessage(&lt;br&gt;StarGameMessage)" style="edgeLabel;html=1;align=center;verticalAlign=middle;resizable=0;points=[];rounded=0;labelBackgroundColor=none;fontColor=#000000;labelBorderColor=none;" parent="92" vertex="1" connectable="0"><mxGeometry x="-0.3866" y="-2" relative="1" as="geometry"><mxPoint x="-24" y="2" as="offset"/></mxGeometry></mxCell><mxCell id="90" style="edgeStyle=none;html=1;endArrow=classic;endFill=1;exitX=0.03;exitY=1.018;exitDx=0;exitDy=0;exitPerimeter=0;rounded=0;entryX=1.065;entryY=0.025;entryDx=0;entryDy=0;entryPerimeter=0;labelBackgroundColor=none;fontColor=#000000;labelBorderColor=none;" parent="1" source="86" edge="1" target="89"><mxGeometry relative="1" as="geometry"><mxPoint x="875" y="681" as="sourcePoint"/><mxPoint x="675" y="681" as="targetPoint"/><Array as="points"/></mxGeometry></mxCell><mxCell id="91" value="post(StarGameMessage)" style="edgeLabel;html=1;align=center;verticalAlign=middle;resizable=0;points=[];rounded=0;labelBackgroundColor=none;fontColor=#000000;labelBorderColor=none;" parent="90" vertex="1" connectable="0"><mxGeometry x="-0.3866" y="-2" relative="1" as="geometry"><mxPoint x="-47" y="-9" as="offset"/></mxGeometry></mxCell><mxCell id="120" value="LobbyGameManagement" style="shape=umlLifeline;perimeter=lifelinePerimeter;whiteSpace=wrap;html=1;container=1;collapsible=0;recursiveResize=0;outlineConnect=0;rounded=0;labelBackgroundColor=none;fontColor=#FFFFFF;labelBorderColor=#000000;fillColor=#6666FF;" vertex="1" parent="1"><mxGeometry x="320" y="440" width="150" height="620" as="geometry"/></mxCell><mxCell id="122" value="" style="html=1;points=[];perimeter=orthogonalPerimeter;fillColor=#0050ef;fontColor=#000000;strokeColor=#001DBC;rounded=0;labelBackgroundColor=none;labelBorderColor=none;" vertex="1" parent="120"><mxGeometry x="70" y="150" width="10" height="40" as="geometry"/></mxCell><mxCell id="123" style="edgeStyle=none;html=1;endArrow=classic;endFill=1;exitX=-0.231;exitY=1.007;exitDx=0;exitDy=0;exitPerimeter=0;rounded=0;labelBackgroundColor=none;fontColor=#000000;labelBorderColor=none;" edge="1" parent="120"><mxGeometry relative="1" as="geometry"><mxPoint x="175.00000000000006" y="150.00000000000017" as="sourcePoint"/><mxPoint x="81" y="150" as="targetPoint"/><Array as="points"/></mxGeometry></mxCell><mxCell id="124" value="startGame()" style="edgeLabel;html=1;align=center;verticalAlign=middle;resizable=0;points=[];rounded=0;labelBackgroundColor=none;fontColor=#000000;labelBorderColor=none;" vertex="1" connectable="0" parent="123"><mxGeometry x="-0.3866" y="-2" relative="1" as="geometry"><mxPoint x="-17" y="-3" as="offset"/></mxGeometry></mxCell><mxCell id="128" value="SceneManager" style="shape=umlLifeline;perimeter=lifelinePerimeter;whiteSpace=wrap;html=1;container=1;collapsible=0;recursiveResize=0;outlineConnect=0;rounded=0;labelBackgroundColor=none;fontColor=#FFFFFF;labelBorderColor=none;fillColor=#6666FF;strokeColor=#333333;" vertex="1" parent="1"><mxGeometry x="120" y="440" width="120" height="660" as="geometry"/></mxCell><mxCell id="139" style="edgeStyle=orthogonalEdgeStyle;rounded=0;orthogonalLoop=1;jettySize=auto;html=1;startArrow=none;startFill=0;endArrow=classic;endFill=1;exitX=0.604;exitY=0.999;exitDx=0;exitDy=0;exitPerimeter=0;labelBackgroundColor=none;fontColor=#000000;labelBorderColor=none;" edge="1" parent="128" source="130" target="137"><mxGeometry relative="1" as="geometry"><mxPoint x="60" y="540" as="targetPoint"/><Array as="points"><mxPoint x="90" y="520"/><mxPoint x="90" y="540"/></Array></mxGeometry></mxCell><mxCell id="145" value="&lt;font style=&quot;font-size: 11px;&quot;&gt;showGameScreen(&lt;br style=&quot;&quot;&gt;lobbyID,&lt;br style=&quot;&quot;&gt;thisGameParent)&lt;/font&gt;" style="edgeLabel;html=1;align=center;verticalAlign=middle;resizable=0;points=[];fontSize=9;labelBackgroundColor=none;fontColor=#000000;labelBorderColor=none;" vertex="1" connectable="0" parent="139"><mxGeometry x="0.7981" y="-1" relative="1" as="geometry"><mxPoint x="46" y="21" as="offset"/></mxGeometry></mxCell><mxCell id="130" value="" style="html=1;points=[];perimeter=orthogonalPerimeter;fillColor=#0050ef;fontColor=#000000;strokeColor=#001DBC;rounded=0;labelBackgroundColor=none;labelBorderColor=none;" vertex="1" parent="128"><mxGeometry x="45" y="230" width="10" height="290" as="geometry"/></mxCell><mxCell id="137" value="" style="html=1;points=[];perimeter=orthogonalPerimeter;fillColor=#0050ef;fontColor=#000000;strokeColor=#001DBC;rounded=0;labelBackgroundColor=none;labelBorderColor=none;" vertex="1" parent="128"><mxGeometry x="55" y="540" width="10" height="30" as="geometry"/></mxCell><mxCell id="159" style="edgeStyle=orthogonalEdgeStyle;rounded=0;orthogonalLoop=1;jettySize=auto;html=1;startArrow=none;startFill=0;endArrow=classic;endFill=1;exitX=0.924;exitY=1.002;exitDx=0;exitDy=0;exitPerimeter=0;labelBackgroundColor=none;fontColor=#000000;labelBorderColor=none;strokeColor=#000000;" edge="1" parent="1" source="230"><mxGeometry relative="1" as="geometry"><mxPoint x="402.59000000000003" y="928.95" as="sourcePoint"/><mxPoint x="666" y="900" as="targetPoint"/><Array as="points"><mxPoint x="666" y="900"/></Array></mxGeometry></mxCell><mxCell id="160" value="post(RequestDistributeCardsEvent)" style="edgeLabel;html=1;align=center;verticalAlign=middle;resizable=0;points=[];labelBackgroundColor=none;fontColor=#000000;labelBorderColor=none;" vertex="1" connectable="0" parent="159"><mxGeometry x="-0.11" relative="1" as="geometry"><mxPoint x="-1" y="-10" as="offset"/></mxGeometry></mxCell><mxCell id="162" value="GameView" style="shape=umlLifeline;perimeter=lifelinePerimeter;whiteSpace=wrap;html=1;container=1;collapsible=0;recursiveResize=0;outlineConnect=0;rounded=0;labelBackgroundColor=none;fontColor=#FFFFFF;labelBorderColor=none;fillColor=#6666FF;" vertex="1" parent="1"><mxGeometry x="40" y="820" width="100" height="240" as="geometry"/></mxCell><mxCell id="164" value="" style="html=1;points=[];perimeter=orthogonalPerimeter;fillColor=#0050ef;fontColor=#FFFFFF;strokeColor=#001DBC;rounded=0;labelBackgroundColor=none;labelBorderColor=#000000;" vertex="1" parent="162"><mxGeometry x="45" y="190" width="10" height="30" as="geometry"/></mxCell><mxCell id="165" style="edgeStyle=orthogonalEdgeStyle;rounded=0;orthogonalLoop=1;jettySize=auto;html=1;entryX=1.152;entryY=0.09;entryDx=0;entryDy=0;entryPerimeter=0;startArrow=none;startFill=0;endArrow=classic;endFill=1;labelBackgroundColor=none;fontColor=#000000;labelBorderColor=none;" edge="1" parent="1" source="137" target="164"><mxGeometry relative="1" as="geometry"><Array as="points"><mxPoint x="180" y="1013"/></Array></mxGeometry></mxCell><mxCell id="166" value="showNode()" style="edgeLabel;html=1;align=center;verticalAlign=middle;resizable=0;points=[];labelBackgroundColor=none;fontColor=#000000;labelBorderColor=none;" vertex="1" connectable="0" parent="165"><mxGeometry x="0.2354" y="-2" relative="1" as="geometry"><mxPoint x="8" y="-11" as="offset"/></mxGeometry></mxCell><mxCell id="168" style="edgeStyle=orthogonalEdgeStyle;rounded=0;orthogonalLoop=1;jettySize=auto;html=1;startArrow=none;startFill=0;endArrow=classic;endFill=1;labelBackgroundColor=none;fontColor=#FFFFFF;labelBorderColor=#000000;" edge="1" parent="1" source="164"><mxGeometry relative="1" as="geometry"><mxPoint x="30" y="1040" as="targetPoint"/><Array as="points"><mxPoint x="30" y="1040"/></Array></mxGeometry></mxCell><mxCell id="190" value="" style="html=1;points=[];perimeter=orthogonalPerimeter;rounded=0;fillColor=#0050ef;fontColor=#000000;strokeColor=#001DBC;labelBackgroundColor=none;labelBorderColor=none;" vertex="1" parent="1"><mxGeometry x="255" y="190" width="10" height="60" as="geometry"/></mxCell><mxCell id="191" value="" style="html=1;points=[];perimeter=orthogonalPerimeter;rounded=0;fillColor=#0050ef;fontColor=#000000;strokeColor=#001DBC;labelBackgroundColor=none;labelBorderColor=none;" vertex="1" parent="1"><mxGeometry x="115" y="170" width="10" height="30" as="geometry"/></mxCell><mxCell id="192" value="" style="html=1;points=[];perimeter=orthogonalPerimeter;fillColor=#0050ef;fontColor=#000000;strokeColor=#001DBC;rounded=0;labelBackgroundColor=none;labelBorderColor=none;" vertex="1" parent="1"><mxGeometry x="865" y="320" width="10" height="30" as="geometry"/></mxCell><mxCell id="193" value="" style="html=1;points=[];perimeter=orthogonalPerimeter;fillColor=#0050ef;fontColor=#000000;strokeColor=#001DBC;rounded=0;labelBackgroundColor=none;labelBorderColor=none;" vertex="1" parent="1"><mxGeometry x="865" y="480" width="10" height="30" as="geometry"/></mxCell><mxCell id="194" value="" style="html=1;points=[];perimeter=orthogonalPerimeter;fillColor=#0050ef;fontColor=#000000;strokeColor=#001DBC;rounded=0;labelBackgroundColor=none;labelBorderColor=none;" vertex="1" parent="1"><mxGeometry x="1210" y="370" width="10" height="80" as="geometry"/></mxCell><mxCell id="195" value="" style="html=1;points=[];perimeter=orthogonalPerimeter;fillColor=#0050ef;fontColor=#000000;strokeColor=#001DBC;rounded=0;labelBackgroundColor=none;labelBorderColor=none;" vertex="1" parent="1"><mxGeometry x="995" y="340" width="10" height="30" as="geometry"/></mxCell><mxCell id="196" value="" style="html=1;points=[];perimeter=orthogonalPerimeter;fillColor=#0050ef;fontColor=#000000;strokeColor=#001DBC;rounded=0;labelBackgroundColor=none;labelBorderColor=none;" vertex="1" parent="1"><mxGeometry x="995" y="450" width="10" height="30" as="geometry"/></mxCell><mxCell id="197" style="edgeStyle=none;html=1;endArrow=classic;endFill=1;entryX=-0.052;entryY=0.015;entryDx=0;entryDy=0;entryPerimeter=0;rounded=0;labelBackgroundColor=none;fontColor=#000000;labelBorderColor=none;strokeColor=#000000;" edge="1" target="191" parent="1"><mxGeometry relative="1" as="geometry"><mxPoint x="25" y="172" as="sourcePoint"/></mxGeometry></mxCell><mxCell id="198" value="&lt;font color=&quot;#000000&quot;&gt;User&lt;/font&gt;" style="shape=umlActor;verticalLabelPosition=bottom;verticalAlign=top;html=1;rounded=0;labelBackgroundColor=none;fontColor=#FFFFFF;labelBorderColor=none;strokeColor=#000000;" vertex="1" parent="1"><mxGeometry x="10" y="80" width="30" height="60" as="geometry"/></mxCell><mxCell id="201" style="edgeStyle=none;html=1;endArrow=classic;endFill=1;entryX=-0.052;entryY=-0.017;entryDx=0;entryDy=0;entryPerimeter=0;exitX=1.019;exitY=0.998;exitDx=0;exitDy=0;exitPerimeter=0;rounded=0;labelBackgroundColor=none;fontColor=#000000;labelBorderColor=none;strokeColor=#000000;" edge="1" target="192" parent="1"><mxGeometry relative="1" as="geometry"><mxPoint x="675.19" y="319.94000000000005" as="sourcePoint"/><mxPoint x="499.47" y="320.51" as="targetPoint"/></mxGeometry></mxCell><mxCell id="202" value="onStartGameRequest(&lt;br&gt;startGameRequest)" style="edgeLabel;html=1;align=center;verticalAlign=middle;resizable=0;points=[];rounded=0;labelBackgroundColor=none;fontColor=#000000;labelBorderColor=none;" vertex="1" connectable="0" parent="201"><mxGeometry x="-0.3866" y="-2" relative="1" as="geometry"><mxPoint x="27" y="-2" as="offset"/></mxGeometry></mxCell><mxCell id="203" style="edgeStyle=none;html=1;endArrow=classic;endFill=1;exitX=0.995;exitY=0.998;exitDx=0;exitDy=0;exitPerimeter=0;entryX=-0.1;entryY=-0.017;entryDx=0;entryDy=0;entryPerimeter=0;rounded=0;labelBackgroundColor=none;fontColor=#000000;labelBorderColor=none;strokeColor=#000000;" edge="1" source="195" target="194" parent="1"><mxGeometry relative="1" as="geometry"><mxPoint x="1432.5600000000002" y="510" as="sourcePoint"/><mxPoint x="1717.61" y="509.55999999999995" as="targetPoint"/></mxGeometry></mxCell><mxCell id="204" value="onStartGameRequest(&lt;br&gt;startGameRequest)" style="edgeLabel;html=1;align=center;verticalAlign=middle;resizable=0;points=[];rounded=0;labelBackgroundColor=none;fontColor=#000000;labelBorderColor=none;" vertex="1" connectable="0" parent="203"><mxGeometry x="-0.3866" y="-2" relative="1" as="geometry"><mxPoint x="11" y="-2" as="offset"/></mxGeometry></mxCell><mxCell id="205" value="" style="html=1;points=[];perimeter=orthogonalPerimeter;fillColor=#0050ef;fontColor=#000000;strokeColor=#001DBC;rounded=0;labelBackgroundColor=none;labelBorderColor=none;" vertex="1" parent="1"><mxGeometry x="1380" y="380" width="10" height="50" as="geometry"/></mxCell><mxCell id="206" style="edgeStyle=none;html=1;endArrow=classic;endFill=1;exitX=1.233;exitY=0.15;exitDx=0;exitDy=0;exitPerimeter=0;rounded=0;labelBackgroundColor=none;fontColor=#000000;labelBorderColor=none;strokeColor=#000000;" edge="1" source="194" parent="1"><mxGeometry relative="1" as="geometry"><mxPoint x="1812.56" y="479" as="sourcePoint"/><mxPoint x="1380" y="382" as="targetPoint"/></mxGeometry></mxCell><mxCell id="208" style="edgeStyle=none;html=1;endArrow=classic;endFill=1;entryX=1.042;entryY=-0.004;entryDx=0;entryDy=0;entryPerimeter=0;exitX=-0.112;exitY=1.002;exitDx=0;exitDy=0;exitPerimeter=0;rounded=0;labelBackgroundColor=none;fontColor=#000000;labelBorderColor=none;strokeColor=#000000;" edge="1" source="194" target="196" parent="1"><mxGeometry relative="1" as="geometry"><mxPoint x="1765.8200000000002" y="580.4200000000001" as="sourcePoint"/><mxPoint x="1607.56" y="580" as="targetPoint"/></mxGeometry></mxCell><mxCell id="210" style="edgeStyle=none;html=1;endArrow=classic;endFill=1;entryX=0.995;entryY=0.014;entryDx=0;entryDy=0;entryPerimeter=0;exitX=-0.042;exitY=0.984;exitDx=0;exitDy=0;exitPerimeter=0;rounded=0;labelBackgroundColor=none;fontColor=#000000;labelBorderColor=none;strokeColor=#000000;" edge="1" source="196" target="193" parent="1"><mxGeometry relative="1" as="geometry"><mxPoint x="1062.5700000000002" y="649.52" as="sourcePoint"/><mxPoint x="924.9738095238095" y="640" as="targetPoint"/><Array as="points"/></mxGeometry></mxCell><mxCell id="271" value="&lt;span style=&quot;&quot;&gt;...&lt;/span&gt;" style="edgeLabel;html=1;align=center;verticalAlign=middle;resizable=0;points=[];fontSize=11;fontFamily=Helvetica;fontColor=#000000;labelBackgroundColor=#FFFFFF;" vertex="1" connectable="0" parent="210"><mxGeometry x="0.1429" y="-1" relative="1" as="geometry"><mxPoint as="offset"/></mxGeometry></mxCell><mxCell id="212" style="edgeStyle=none;html=1;endArrow=classic;endFill=1;entryX=-0.052;entryY=-0.017;entryDx=0;entryDy=0;entryPerimeter=0;rounded=0;labelBackgroundColor=none;fontColor=#000000;labelBorderColor=none;strokeColor=#000000;" edge="1" parent="1"><mxGeometry relative="1" as="geometry"><mxPoint x="498.2777777777778" y="289.49" as="sourcePoint"/><mxPoint x="664.48" y="289.49" as="targetPoint"/></mxGeometry></mxCell><mxCell id="213" value="post(startGameRequest)" style="edgeLabel;html=1;align=center;verticalAlign=middle;resizable=0;points=[];rounded=0;labelBackgroundColor=none;fontColor=#000000;labelBorderColor=none;" vertex="1" connectable="0" parent="212"><mxGeometry x="-0.3866" y="-2" relative="1" as="geometry"><mxPoint x="31" y="-11" as="offset"/></mxGeometry></mxCell><mxCell id="214" value="" style="html=1;points=[];perimeter=orthogonalPerimeter;rounded=0;fillColor=#0050ef;fontColor=#000000;strokeColor=#001DBC;labelBackgroundColor=none;labelBorderColor=none;" vertex="1" parent="1"><mxGeometry x="495" y="250" width="10" height="40" as="geometry"/></mxCell><mxCell id="215" value="" style="html=1;points=[];perimeter=orthogonalPerimeter;fillColor=#0050ef;fontColor=#000000;strokeColor=#001DBC;rounded=0;labelBackgroundColor=none;labelBorderColor=none;" vertex="1" parent="1"><mxGeometry x="495" y="550" width="10" height="40" as="geometry"/></mxCell><mxCell id="216" style="edgeStyle=none;html=1;endArrow=classic;endFill=1;entryX=0.029;entryY=0.005;entryDx=0;entryDy=0;entryPerimeter=0;rounded=0;exitX=1.167;exitY=1.008;exitDx=0;exitDy=0;exitPerimeter=0;labelBackgroundColor=none;fontColor=#000000;labelBorderColor=none;strokeColor=#000000;" edge="1" source="190" target="214" parent="1"><mxGeometry relative="1" as="geometry"><mxPoint x="294.9985714285713" y="290" as="sourcePoint"/><mxPoint x="439.55" y="290" as="targetPoint"/></mxGeometry></mxCell><mxCell id="218" style="edgeStyle=orthogonalEdgeStyle;rounded=0;orthogonalLoop=1;jettySize=auto;html=1;entryX=-0.083;entryY=0.294;entryDx=0;entryDy=0;entryPerimeter=0;exitX=1.075;exitY=0.956;exitDx=0;exitDy=0;exitPerimeter=0;labelBackgroundColor=none;fontColor=#000000;labelBorderColor=none;strokeColor=#000000;endFill=1;" edge="1" source="192" target="195" parent="1"><mxGeometry relative="1" as="geometry"/></mxCell><mxCell id="270" value="..." style="edgeLabel;html=1;align=center;verticalAlign=middle;resizable=0;points=[];fontSize=11;fontFamily=Helvetica;fontColor=#000000;labelBackgroundColor=#FFFFFF;" vertex="1" connectable="0" parent="218"><mxGeometry x="-0.1895" y="2" relative="1" as="geometry"><mxPoint as="offset"/></mxGeometry></mxCell><mxCell id="220" style="edgeStyle=none;html=1;endArrow=none;endFill=0;rounded=0;startArrow=classic;startFill=1;dashed=1;entryX=0;entryY=0.787;entryDx=0;entryDy=0;entryPerimeter=0;labelBackgroundColor=none;fontColor=#000000;labelBorderColor=none;strokeColor=#000000;" edge="1" source="194" target="205" parent="1"><mxGeometry relative="1" as="geometry"><mxPoint x="1573.09" y="560.86" as="sourcePoint"/><mxPoint x="1640" y="450" as="targetPoint"/><Array as="points"/></mxGeometry></mxCell><mxCell id="221" style="edgeStyle=none;html=1;endArrow=classic;endFill=1;exitX=-0.231;exitY=1.007;exitDx=0;exitDy=0;exitPerimeter=0;rounded=0;entryX=1.038;entryY=0.01;entryDx=0;entryDy=0;entryPerimeter=0;labelBackgroundColor=none;fontColor=#000000;labelBorderColor=none;strokeColor=#000000;" edge="1" target="215" parent="1"><mxGeometry relative="1" as="geometry"><mxPoint x="662.69" y="550.2799999999999" as="sourcePoint"/><mxPoint x="545" y="711" as="targetPoint"/><Array as="points"/></mxGeometry></mxCell><mxCell id="222" value="onStarGameMessage(&lt;br&gt;StarGameMessage)" style="edgeLabel;html=1;align=center;verticalAlign=middle;resizable=0;points=[];rounded=0;labelBackgroundColor=none;fontColor=#000000;labelBorderColor=none;" vertex="1" connectable="0" parent="221"><mxGeometry x="-0.3866" y="-2" relative="1" as="geometry"><mxPoint x="-24" y="2" as="offset"/></mxGeometry></mxCell><mxCell id="223" style="edgeStyle=none;html=1;endArrow=classic;endFill=1;exitX=0.03;exitY=1.018;exitDx=0;exitDy=0;exitPerimeter=0;rounded=0;entryX=1.065;entryY=0.025;entryDx=0;entryDy=0;entryPerimeter=0;labelBackgroundColor=none;fontColor=#000000;labelBorderColor=none;strokeColor=#000000;" edge="1" source="193" parent="1"><mxGeometry relative="1" as="geometry"><mxPoint x="875" y="681" as="sourcePoint"/><mxPoint x="675.6500000000001" y="510.9999999999999" as="targetPoint"/><Array as="points"/></mxGeometry></mxCell><mxCell id="225" value="LobbyGameManagement" style="shape=umlLifeline;perimeter=lifelinePerimeter;whiteSpace=wrap;html=1;container=1;collapsible=0;recursiveResize=0;outlineConnect=0;rounded=0;labelBackgroundColor=none;fontColor=#FFFFFF;labelBorderColor=none;fillColor=#6666FF;strokeColor=#333333;" vertex="1" parent="1"><mxGeometry x="320" y="440" width="150" height="620" as="geometry"/></mxCell><mxCell id="226" value="" style="html=1;points=[];perimeter=orthogonalPerimeter;fillColor=#0050ef;fontColor=#000000;strokeColor=#001DBC;rounded=0;labelBackgroundColor=none;labelBorderColor=none;" vertex="1" parent="225"><mxGeometry x="70" y="150" width="10" height="40" as="geometry"/></mxCell><mxCell id="227" style="edgeStyle=none;html=1;endArrow=classic;endFill=1;exitX=-0.231;exitY=1.007;exitDx=0;exitDy=0;exitPerimeter=0;rounded=0;labelBackgroundColor=none;fontColor=#000000;labelBorderColor=none;strokeColor=#000000;" edge="1" parent="225"><mxGeometry relative="1" as="geometry"><mxPoint x="174.00000000000006" y="150.00000000000017" as="sourcePoint"/><mxPoint x="80" y="150" as="targetPoint"/><Array as="points"/></mxGeometry></mxCell><mxCell id="229" value="" style="html=1;points=[];perimeter=orthogonalPerimeter;fillColor=#0050ef;fontColor=#000000;strokeColor=#001DBC;rounded=0;labelBackgroundColor=none;labelBorderColor=none;" vertex="1" parent="225"><mxGeometry x="70" y="295" width="10" height="45" as="geometry"/></mxCell><mxCell id="230" value="" style="html=1;points=[];perimeter=orthogonalPerimeter;fillColor=#0050ef;fontColor=#000000;strokeColor=#001DBC;rounded=0;labelBackgroundColor=none;labelBorderColor=none;" vertex="1" parent="225"><mxGeometry x="70" y="410" width="10" height="50" as="geometry"/></mxCell><mxCell id="231" style="edgeStyle=orthogonalEdgeStyle;rounded=0;orthogonalLoop=1;jettySize=auto;html=1;startArrow=none;startFill=0;endArrow=classic;endFill=1;labelBackgroundColor=none;fontColor=#000000;labelBorderColor=none;strokeColor=#000000;exitX=0.911;exitY=0.835;exitDx=0;exitDy=0;exitPerimeter=0;" edge="1" parent="225" source="229" target="230"><mxGeometry relative="1" as="geometry"><mxPoint x="80" y="332.47" as="sourcePoint"/><mxPoint x="80" y="412" as="targetPoint"/><Array as="points"><mxPoint x="100" y="333"/><mxPoint x="100" y="412"/></Array></mxGeometry></mxCell><mxCell id="280" value="initPresenter&lt;br&gt;andStartRequest()" style="edgeLabel;html=1;align=center;verticalAlign=middle;resizable=0;points=[];fontSize=11;fontFamily=Helvetica;fontColor=#000000;labelBackgroundColor=none;" vertex="1" connectable="0" parent="231"><mxGeometry x="-0.0973" y="-1" relative="1" as="geometry"><mxPoint x="51" as="offset"/></mxGeometry></mxCell><mxCell id="283" value="onShowGameViewEvent()" style="edgeLabel;html=1;align=center;verticalAlign=middle;resizable=0;points=[];labelBackgroundColor=none;fontColor=#000000;labelBorderColor=none;" vertex="1" connectable="0" parent="225"><mxGeometry x="-19.9950009502154" y="220" as="geometry"/></mxCell><mxCell id="233" style="edgeStyle=orthogonalEdgeStyle;rounded=0;orthogonalLoop=1;jettySize=auto;html=1;entryX=0.588;entryY=0.03;entryDx=0;entryDy=0;entryPerimeter=0;startArrow=none;startFill=0;endArrow=classic;endFill=1;exitX=0.955;exitY=0.913;exitDx=0;exitDy=0;exitPerimeter=0;labelBackgroundColor=none;fontColor=#000000;labelBorderColor=none;strokeColor=#000000;" edge="1" source="226" target="125" parent="1"><mxGeometry relative="1" as="geometry"><mxPoint x="667.4200000000001" y="631.3499999999999" as="targetPoint"/><Array as="points"><mxPoint x="400" y="630"/><mxPoint x="667" y="630"/><mxPoint x="667" y="632"/></Array></mxGeometry></mxCell><mxCell id="282" value="post(ShowGameViewEvent)" style="edgeLabel;html=1;align=center;verticalAlign=middle;resizable=0;points=[];fontSize=11;fontFamily=Helvetica;fontColor=#000000;labelBackgroundColor=none;" vertex="1" connectable="0" parent="233"><mxGeometry x="0.1414" y="1" relative="1" as="geometry"><mxPoint x="26" y="-9" as="offset"/></mxGeometry></mxCell><mxCell id="235" style="edgeStyle=orthogonalEdgeStyle;rounded=0;orthogonalLoop=1;jettySize=auto;html=1;entryX=0.9;entryY=0.02;entryDx=0;entryDy=0;entryPerimeter=0;startArrow=none;startFill=0;endArrow=classic;endFill=1;exitX=0.974;exitY=0.061;exitDx=0;exitDy=0;exitPerimeter=0;labelBackgroundColor=none;fontColor=#000000;labelBorderColor=none;strokeColor=#000000;" edge="1" source="239" target="240" parent="1"><mxGeometry relative="1" as="geometry"><mxPoint x="66" y="250" as="sourcePoint"/><Array as="points"><mxPoint x="175" y="690"/><mxPoint x="240" y="690"/><mxPoint x="240" y="705"/></Array></mxGeometry></mxCell><mxCell id="277" value="&lt;span style=&quot;&quot;&gt;initGameView()&lt;/span&gt;" style="edgeLabel;html=1;align=center;verticalAlign=middle;resizable=0;points=[];fontSize=11;fontFamily=Helvetica;fontColor=#000000;labelBackgroundColor=none;" vertex="1" connectable="0" parent="235"><mxGeometry x="0.0251" relative="1" as="geometry"><mxPoint x="40" y="9" as="offset"/></mxGeometry></mxCell><mxCell id="237" style="edgeStyle=orthogonalEdgeStyle;rounded=0;orthogonalLoop=1;jettySize=auto;html=1;startArrow=none;startFill=0;endArrow=classic;endFill=1;exitX=0.604;exitY=0.999;exitDx=0;exitDy=0;exitPerimeter=0;labelBackgroundColor=none;fontColor=#000000;labelBorderColor=none;strokeColor=#000000;" edge="1" source="239" target="241" parent="1"><mxGeometry relative="1" as="geometry"><mxPoint x="60" y="540" as="targetPoint"/><Array as="points"><mxPoint x="210" y="960"/><mxPoint x="210" y="980"/></Array></mxGeometry></mxCell><mxCell id="239" value="" style="html=1;points=[];perimeter=orthogonalPerimeter;fillColor=#0050ef;fontColor=#000000;strokeColor=#001DBC;rounded=0;labelBackgroundColor=none;labelBorderColor=none;" vertex="1" parent="1"><mxGeometry x="165" y="670" width="15" height="290" as="geometry"/></mxCell><mxCell id="240" value="" style="html=1;points=[];perimeter=orthogonalPerimeter;fillColor=#1ba1e2;fontColor=#000000;strokeColor=#006EAF;rounded=0;labelBackgroundColor=none;labelBorderColor=none;" vertex="1" parent="1"><mxGeometry x="175" y="700" width="10" height="230" as="geometry"/></mxCell><mxCell id="241" value="" style="html=1;points=[];perimeter=orthogonalPerimeter;fillColor=#0050ef;fontColor=#000000;strokeColor=#001DBC;rounded=0;labelBackgroundColor=none;labelBorderColor=none;" vertex="1" parent="1"><mxGeometry x="175" y="980" width="10" height="30" as="geometry"/></mxCell><mxCell id="243" style="edgeStyle=orthogonalEdgeStyle;rounded=0;orthogonalLoop=1;jettySize=auto;html=1;startArrow=none;startFill=0;endArrow=classic;endFill=1;dashed=1;labelBackgroundColor=none;fontColor=#000000;labelBorderColor=none;strokeColor=#000000;entryX=-0.008;entryY=0.955;entryDx=0;entryDy=0;entryPerimeter=0;" edge="1" parent="1" source="240" target="239"><mxGeometry relative="1" as="geometry"><mxPoint x="180" y="930" as="sourcePoint"/><mxPoint x="164.96000000000004" y="724.96" as="targetPoint"/><Array as="points"><mxPoint x="120" y="930"/><mxPoint x="120" y="947"/></Array></mxGeometry></mxCell><mxCell id="272" value="&lt;span style=&quot;&quot;&gt;thisGameParent&lt;/span&gt;" style="edgeLabel;html=1;align=center;verticalAlign=middle;resizable=0;points=[];fontSize=11;fontFamily=Helvetica;fontColor=#000000;labelBackgroundColor=#FFFFFF;" vertex="1" connectable="0" parent="243"><mxGeometry x="-0.6958" y="1" relative="1" as="geometry"><mxPoint x="-18" y="-11" as="offset"/></mxGeometry></mxCell><mxCell id="245" style="edgeStyle=orthogonalEdgeStyle;rounded=0;orthogonalLoop=1;jettySize=auto;html=1;startArrow=classic;startFill=1;endArrow=none;endFill=0;dashed=1;labelBackgroundColor=none;fontColor=#000000;labelBorderColor=none;strokeColor=#000000;entryX=-0.042;entryY=0.973;entryDx=0;entryDy=0;entryPerimeter=0;" edge="1" parent="1" target="125"><mxGeometry relative="1" as="geometry"><mxPoint x="180" y="670" as="sourcePoint"/><mxPoint x="670.0000000000005" y="674" as="targetPoint"/><Array as="points"><mxPoint x="181" y="670"/><mxPoint x="423" y="670"/><mxPoint x="423" y="669"/></Array></mxGeometry></mxCell><mxCell id="247" style="edgeStyle=orthogonalEdgeStyle;rounded=0;orthogonalLoop=1;jettySize=auto;html=1;startArrow=none;startFill=0;endArrow=classic;endFill=1;labelBackgroundColor=none;fontColor=#000000;labelBorderColor=none;strokeColor=#000000;entryX=-0.037;entryY=0.044;entryDx=0;entryDy=0;entryPerimeter=0;" edge="1" source="240" target="229" parent="1"><mxGeometry relative="1" as="geometry"><mxPoint x="390" y="740" as="targetPoint"/><Array as="points"><mxPoint x="380" y="737"/><mxPoint x="380" y="737"/></Array></mxGeometry></mxCell><mxCell id="278" value="&lt;span style=&quot;&quot;&gt;setLobbyGamePresenter()&lt;/span&gt;" style="edgeLabel;html=1;align=center;verticalAlign=middle;resizable=0;points=[];fontSize=11;fontFamily=Helvetica;fontColor=#000000;labelBackgroundColor=none;" vertex="1" connectable="0" parent="247"><mxGeometry x="-0.2034" y="1" relative="1" as="geometry"><mxPoint x="14" y="-6" as="offset"/></mxGeometry></mxCell><mxCell id="249" value="GamePresenter" style="shape=umlLifeline;perimeter=lifelinePerimeter;whiteSpace=wrap;html=1;container=1;collapsible=0;recursiveResize=0;outlineConnect=0;rounded=0;labelBackgroundColor=none;fontColor=#FFFFFF;labelBorderColor=none;fillColor=#6666FF;strokeColor=#333333;" vertex="1" parent="1"><mxGeometry x="240" y="790" width="120" height="270" as="geometry"/></mxCell><mxCell id="250" value="" style="html=1;points=[];perimeter=orthogonalPerimeter;fillColor=#0050ef;fontColor=#000000;strokeColor=#001DBC;rounded=0;labelBackgroundColor=none;labelBorderColor=none;" vertex="1" parent="249"><mxGeometry x="55" y="80" width="10" height="20" as="geometry"/></mxCell><mxCell id="251" style="edgeStyle=orthogonalEdgeStyle;rounded=0;orthogonalLoop=1;jettySize=auto;html=1;startArrow=none;startFill=0;endArrow=classic;endFill=1;entryX=1.159;entryY=0.091;entryDx=0;entryDy=0;entryPerimeter=0;labelBackgroundColor=none;fontColor=#000000;labelBorderColor=none;strokeColor=#000000;exitX=-0.1;exitY=0.44;exitDx=0;exitDy=0;exitPerimeter=0;" edge="1" target="250" parent="1" source="230"><mxGeometry relative="1" as="geometry"><mxPoint x="390" y="900" as="sourcePoint"/><mxPoint x="290" y="900" as="targetPoint"/><Array as="points"/></mxGeometry></mxCell><mxCell id="281" value="init()" style="edgeLabel;html=1;align=center;verticalAlign=middle;resizable=0;points=[];fontSize=11;fontFamily=Helvetica;fontColor=#000000;labelBackgroundColor=none;" vertex="1" connectable="0" parent="251"><mxGeometry x="0.2907" relative="1" as="geometry"><mxPoint x="14" y="-12" as="offset"/></mxGeometry></mxCell><mxCell id="255" value="GameView" style="shape=umlLifeline;perimeter=lifelinePerimeter;whiteSpace=wrap;html=1;container=1;collapsible=0;recursiveResize=0;outlineConnect=0;rounded=0;labelBackgroundColor=none;fontColor=#FFFFFF;labelBorderColor=none;fillColor=#6666FF;strokeColor=#333333;" vertex="1" parent="1"><mxGeometry x="40" y="820" width="100" height="240" as="geometry"/></mxCell><mxCell id="256" value="" style="html=1;points=[];perimeter=orthogonalPerimeter;fillColor=#0050ef;fontColor=#FFFFFF;strokeColor=#001DBC;rounded=0;labelBackgroundColor=none;labelBorderColor=#000000;" vertex="1" parent="255"><mxGeometry x="45" y="190" width="10" height="30" as="geometry"/></mxCell><mxCell id="257" style="edgeStyle=orthogonalEdgeStyle;rounded=0;orthogonalLoop=1;jettySize=auto;html=1;entryX=1.152;entryY=0.09;entryDx=0;entryDy=0;entryPerimeter=0;startArrow=none;startFill=0;endArrow=classic;endFill=1;labelBackgroundColor=none;fontColor=#000000;labelBorderColor=none;strokeColor=#000000;" edge="1" source="241" target="256" parent="1"><mxGeometry relative="1" as="geometry"><Array as="points"><mxPoint x="180" y="1013"/></Array></mxGeometry></mxCell><mxCell id="259" style="edgeStyle=orthogonalEdgeStyle;rounded=0;orthogonalLoop=1;jettySize=auto;html=1;startArrow=none;startFill=0;endArrow=classic;endFill=1;labelBackgroundColor=none;fontColor=#000000;labelBorderColor=none;strokeColor=#000000;" edge="1" source="256" parent="1"><mxGeometry relative="1" as="geometry"><mxPoint x="30" y="1040" as="targetPoint"/><Array as="points"><mxPoint x="30" y="1040"/></Array></mxGeometry></mxCell><mxCell id="274" value="" style="edgeStyle=none;shape=connector;rounded=0;orthogonalLoop=1;jettySize=auto;html=1;labelBackgroundColor=none;labelBorderColor=none;strokeColor=#000000;fontFamily=Helvetica;fontSize=11;fontColor=#000000;endArrow=classic;endFill=1;" edge="1" parent="1"><mxGeometry relative="1" as="geometry"><mxPoint x="675" y="920" as="sourcePoint"/><mxPoint x="810" y="920" as="targetPoint"/></mxGeometry></mxCell><mxCell id="276" value="&lt;span style=&quot;&quot;&gt;....&lt;/span&gt;" style="edgeLabel;html=1;align=center;verticalAlign=middle;resizable=0;points=[];fontSize=11;fontFamily=Helvetica;fontColor=#000000;labelBackgroundColor=#FFFFFF;" vertex="1" connectable="0" parent="274"><mxGeometry x="0.3975" y="-2" relative="1" as="geometry"><mxPoint x="51" y="-2" as="offset"/></mxGeometry></mxCell></root></mxGraphModel></diagram></mxfile>
